<?xml version="1.0" encoding="utf-8"?>
<!-- Generator: Adobe Illustrator 19.0.0, SVG Export Plug-In . SVG Version: 6.00 Build 0)  -->
<svg version="1.1" id="layer" xmlns="http://www.w3.org/2000/svg" xmlns:xlink="http://www.w3.org/1999/xlink" x="0px" y="0px"
	 viewBox="-153 -46 652 652" style="enable-background:new -153 -46 652 652;" xml:space="preserve">
<style type="text/css">
	.st0{fill:#000000;}
	.st1{fill:#FFFFFF;}
</style>
<g id="Rozkres">
	<g>
		<rect x="-81.2" y="24.6" class="st0" width="245.2" height="500"/>
		<rect x="173.7" y="24.6" class="st0" width="245.2" height="500"/>
		<path class="st1" d="M0.4,78.1c-3.8-3.4-9.6-5.2-17.2-5.2c-5.5,0-10.5,0.4-14.8,1.2l-0.9,0.2v60h9.8c0,0,0-21.2,0-23.4
			c1.6,0.3,3.4,0.4,5,0.4c7.8,0,14.5-2.4,18.8-6.8c3.3-3.4,4.9-7.9,4.9-13.3C6,85.8,4,81.3,0.4,78.1z M-17.5,103
			c-2.1,0-3.8-0.2-5.2-0.4c0-1.6,0-19.4,0-21c1.1-0.2,3.3-0.4,6.1-0.4c4.8,0,12.8,1.3,12.8,10.5C-3.8,98.9-8.8,103-17.5,103z"/>
		<path class="st1" d="M63.8,116.9c-1.4-6-4-9.7-7.6-11.7c6.2-2.8,10.1-8.4,10.1-15.1c0-4.9-1.9-9.2-5-12c-3.9-3.5-9.5-5.2-17.8-5.2
			c-5.1,0-10.8,0.5-14.8,1.3l-0.9,0.2v59.9h9.8c0,0,0-23.5,0-25.5c1.6,0,6.1,0,6.1,0c6.2,0,9.2,2.8,10.8,10.6c1.8,8.3,3,12.7,4,14.4
			l0.4,0.5h10.2l-0.8-1.6C67,130.6,65.5,124.5,63.8,116.9z M56.3,90.9c0,6.1-4.8,10.1-12.2,10.1c0,0-5,0-6.7,0c0-1.9,0-17.9,0-19.4
			c1.1-0.2,3.2-0.5,6.4-0.5C49.6,81.1,56.3,82.8,56.3,90.9z"/>
		<path class="st1" d="M108,73.3l-20.7,60.9h10.1c0,0,5.6-17.1,6.1-18.5c1.4,0,17.9,0,19.3,0c0.4,1.3,6.3,18.5,6.3,18.5h10.4
			l-20.8-60.9H108z M120.6,107.7c-2.3,0-12.3,0-14.6,0c0.8-2.4,5.3-15.6,5.3-15.6c0.8-2.4,1.3-4.9,1.9-7.2c0.5,2,2.1,7.3,2.1,7.3
			S119.1,103.8,120.6,107.7z"/>
		<path class="st1" d="M211.3,106.8c1.9,0,24.3,0,26.3,0c0,2,0,27.6,0,27.6h9.9v-61h-9.9c0,0,0,22.6,0,24.6c-1.9,0-24.3,0-26.3,0
			c0-2,0-24.6,0-24.6h-9.9v60.9h9.9C211.3,134.4,211.3,108.8,211.3,106.8z"/>
		<path class="st1" d="M291.3,73.3l-20.7,60.9h10.1c0,0,5.6-17.1,6.1-18.5c1.4,0,17.9,0,19.3,0c0.4,1.3,6.3,18.5,6.3,18.5h10.4
			L302,73.3H291.3z M303.8,107.7c-2.3,0-12.3,0-14.6,0c0.8-2.4,5.3-15.6,5.3-15.6c0.8-2.5,1.3-4.9,1.9-7.2c0.6,2,2.1,7.4,2.1,7.4
			C298.5,92.3,302.5,103.8,303.8,107.7z"/>
		<path class="st1" d="M0.4,187.9c-3.8-3.4-9.6-5.1-17.2-5.1c-5.5,0-10.5,0.4-14.8,1.2l-0.9,0.2v60h9.8c0,0,0-21.2,0-23.4
			c1.6,0.3,3.4,0.4,5,0.4c7.8,0,14.5-2.4,18.8-6.8c3.3-3.4,4.9-7.9,4.9-13.3C6,195.7,4,191,0.4,187.9z M-17.5,212.9
			c-2.1,0-3.8-0.2-5.2-0.4c0-1.6,0-19.4,0-21c1.1-0.2,3.3-0.4,6.1-0.4c4.8,0,12.8,1.3,12.8,10.5C-3.8,208.7-8.8,212.9-17.5,212.9z"
			/>
		<path class="st1" d="M63.8,226.7c-1.4-5.9-4-9.7-7.6-11.7c6.2-2.8,10.1-8.4,10.1-15.1c0-4.9-1.9-9.2-5-12
			c-3.9-3.5-9.5-5.1-17.8-5.1c-5.1,0-10.8,0.5-14.8,1.3l-0.9,0.2v59.9h9.8c0,0,0-23.5,0-25.5c1.6,0,6.1,0,6.1,0
			c6.2,0,9.2,2.8,10.8,10.6c1.8,8.3,3,12.7,4,14.4l0.4,0.5h10.2l-0.8-1.6C67,240.4,65.5,234.3,63.8,226.7z M56.3,200.7
			c0,6.1-4.8,10.1-12.2,10.1c0,0-5,0-6.7,0c0-1.9,0-17.9,0-19.4c1.1-0.2,3.2-0.4,6.4-0.4C49.6,190.8,56.3,192.6,56.3,200.7z"/>
		<path class="st1" d="M108,183.1l-20.7,61h10.1c0,0,5.6-17.1,6.1-18.5c1.4,0,17.9,0,19.3,0c0.4,1.4,6.3,18.5,6.3,18.5h10.4
			l-20.8-60.9L108,183.1L108,183.1z M120.6,217.5c-2.3,0-12.3,0-14.6,0c0.8-2.4,5.3-15.6,5.3-15.6c0.8-2.4,1.3-4.9,1.9-7.2
			c0.5,2,2.1,7.3,2.1,7.3C115.2,202,119.1,213.6,120.6,217.5z"/>
		<path class="st1" d="M226.8,219.4c0,0,10.1,0,11.8,0c0,1.9,0,14.4,0,15.7c-1.9,0.8-5.2,1.2-9,1.2c-13.3,0-21.6-8.6-21.6-22.7
			c0-13.9,8.6-22.6,22.6-22.6c5,0,9,0.8,12.5,2.4l1.1,0.5l2.6-8.3l-0.9-0.4c-2.7-1.3-8.3-2.8-15.3-2.8c-19.7,0-32.9,12.6-32.9,31.5
			c0,9.2,3.1,17.5,8.6,22.7c5.7,5.5,13.1,8,22.8,8c9.3,0,16.5-2.6,18.5-3.3l0.7-0.3V211h-21.5V219.4z"/>
		<path class="st1" d="M274.6,183.1v35.7c0,16.9,7.8,26.2,22.2,26.2c14.8,0,23.4-9.6,23.4-26.5v-35.5h-9.9v36
			c0,11.5-4.6,17.6-13.2,17.6c-8.1,0-12.6-6.3-12.6-17.6v-36H274.6z"/>
		<path class="st1" d="M358.4,235.6c0-1.9,0-17.2,0-19.1c1.9,0,22.8,0,22.8,0v-8.5c0,0-20.8,0-22.8,0c0-1.9,0-14.6,0-16.4
			c1.9,0,24.2,0,24.2,0v-8.6h-34v61h35.4v-8.6C383.9,235.6,360.5,235.6,358.4,235.6z"/>
		<path class="st1" d="M0.4,297.7c-3.8-3.4-9.6-5.2-17.2-5.2c-5.5,0-10.5,0.4-14.8,1.2l-0.9,0.2v60h9.8c0,0,0-21.2,0-23.4
			c1.7,0.3,3.4,0.4,5,0.4c7.8,0,14.5-2.4,18.8-6.8c3.3-3.4,4.9-7.9,4.9-13.3C6,305.5,4,300.8,0.4,297.7z M-17.5,322.6
			c-2.1,0-3.8-0.2-5.2-0.4c0-1.6,0-19.4,0-21c1.2-0.2,3.3-0.4,6.1-0.4c4.8,0,12.8,1.4,12.8,10.5C-3.8,318.4-8.8,322.6-17.5,322.6z"
			/>
		<path class="st1" d="M63.8,336.4c-1.4-5.9-4-9.7-7.6-11.7c6.2-2.8,10.1-8.4,10.1-15.1c0-4.9-1.9-9.2-5-12
			c-3.9-3.5-9.5-5.2-17.8-5.2c-5.1,0-10.8,0.5-14.8,1.3l-0.9,0.2v59.9h9.8c0,0,0-23.5,0-25.5c1.6,0,6.1,0,6.1,0
			c6.2,0,9.2,2.8,10.8,10.6c1.8,8.3,3,12.7,4,14.4l0.4,0.5h10.2l-0.8-1.6C67,350.1,65.5,344.1,63.8,336.4z M56.3,310.4
			c0,6.1-4.8,10.1-12.2,10.1c0,0-5,0-6.7,0c0-1.9,0-17.9,0-19.4c1.1-0.2,3.2-0.5,6.4-0.5C49.6,300.6,56.3,302.3,56.3,310.4z"/>
		<path class="st1" d="M108,292.9l-20.7,60.9h10.1c0,0,5.6-17.1,6.1-18.5c1.4,0,17.9,0,19.3,0c0.4,1.3,6.3,18.5,6.3,18.5h10.4
			l-20.8-60.9H108z M120.6,327.3c-2.3,0-12.3,0-14.6,0c0.8-2.4,5.3-15.6,5.3-15.6c0.8-2.4,1.3-4.9,1.9-7.2c0.5,2,2.1,7.3,2.1,7.3
			S119.1,323.3,120.6,327.3z"/>
		<path class="st1" d="M226.8,329.1c0,0,10.1,0,11.8,0c0,1.9,0,14.4,0,15.7c-1.9,0.8-5.2,1.2-9,1.2c-13.3,0-21.6-8.6-21.6-22.7
			c0-13.9,8.6-22.6,22.6-22.6c5,0,9,0.8,12.5,2.4l1.1,0.5l2.6-8.3L246,295c-2.6-1.3-8.3-2.8-15.2-2.8c-19.7,0-32.9,12.6-32.9,31.5
			c0,9.2,3.1,17.5,8.6,22.7c5.7,5.5,13.1,8.1,22.8,8.1c9.3,0,16.5-2.6,18.5-3.3l0.7-0.3v-30.1h-21.5L226.8,329.1L226.8,329.1z"/>
		<path class="st1" d="M291.2,292.9l-20.7,60.9h10.1c0,0,5.6-17.1,6.1-18.5c1.4,0,17.9,0,19.3,0c0.4,1.3,6.3,18.5,6.3,18.5h10.4
			l-20.8-60.9H291.2z M303.7,327.3c-2.3,0-12.3,0-14.6,0c0.8-2.4,5.3-15.6,5.3-15.6c0.8-2.4,1.4-4.7,2-7.1c0.6,2.1,2,7.1,2,7.1
			S302.3,323.3,303.7,327.3z"/>
		<path class="st1" d="M0.4,407.4c-3.8-3.4-9.6-5.1-17.2-5.1c-5.5,0-10.4,0.4-14.8,1.2l-0.9,0.2v60h9.8c0,0,0-21.2,0-23.4
			c1.7,0.3,3.4,0.4,5,0.4c7.8,0,14.5-2.4,18.8-6.8c3.3-3.4,4.9-7.9,4.9-13.3C6,415.3,4,410.6,0.4,407.4z M-17.5,432.4
			c-2.1,0-3.8-0.2-5.2-0.4c0-1.6,0-19.4,0-21c1.2-0.2,3.3-0.4,6.1-0.4c4.8,0,12.8,1.3,12.8,10.5C-3.8,428.2-8.8,432.4-17.5,432.4z"
			/>
		<path class="st1" d="M63.8,446.2c-1.4-6-4-9.7-7.6-11.7c6.2-2.8,10.1-8.4,10.1-15.1c0-4.9-1.9-9.2-5-12c-3.9-3.5-9.5-5.1-17.8-5.1
			c-5.1,0-10.8,0.5-14.8,1.3l-0.9,0.2v59.9h9.8c0,0,0-23.5,0-25.5c1.6,0,6.1,0,6.1,0c6.2,0,9.2,2.9,10.8,10.6c1.8,8.1,3,12.7,4,14.4
			l0.4,0.5h10.2l-0.8-1.6C67,459.9,65.5,453.9,63.8,446.2z M56.3,420.2c0,6.1-4.8,10.1-12.2,10.1c0,0-5,0-6.7,0c0-1.9,0-17.9,0-19.4
			c1.1-0.2,3.2-0.5,6.4-0.5C49.6,410.4,56.3,412.1,56.3,420.2z"/>
		<path class="st1" d="M108,402.7l-20.7,60.9h10.1c0,0,5.6-17.1,6.1-18.5c1.4,0,17.9,0,19.3,0c0.4,1.3,6.3,18.5,6.3,18.5h10.4
			l-20.8-60.9H108z M120.6,437.1c-2.3,0-12.3,0-14.6,0c0.8-2.4,5.3-15.6,5.3-15.6c0.8-2.4,1.3-4.9,1.9-7.2c0.5,2,2.1,7.3,2.1,7.3
			C115.2,421.6,119.1,433.1,120.6,437.1z"/>
		<path class="st1" d="M226.8,438.9c0,0,10.1,0,11.8,0c0,1.9,0,14.4,0,15.7c-1.9,0.8-5.2,1.2-9,1.2c-13.3,0-21.6-8.6-21.6-22.7
			c0-13.9,8.6-22.6,22.6-22.6c5,0,9,0.8,12.5,2.5l1.1,0.5l2.6-8.3l-0.9-0.4c-2.7-1.3-8.3-2.8-15.3-2.8c-19.7,0-32.9,12.6-32.9,31.5
			c0,9.2,3.1,17.5,8.6,22.7c5.7,5.5,13.1,8.1,22.8,8.1c9.3,0,16.5-2.6,18.5-3.3l0.7-0.3v-30.1h-21.5V438.9z"/>
	</g>
</g>
</svg>
