<?xml version="1.0" encoding="UTF-8" standalone="no"?>
<svg width="100%" height="100%" viewBox="0 0 363 246" version="1.1" xmlns="http://www.w3.org/2000/svg" xmlns:xlink="http://www.w3.org/1999/xlink" xml:space="preserve" style="fill-rule:evenodd;clip-rule:evenodd;stroke-linejoin:round;stroke-miterlimit:2;">
    <g transform="matrix(4.16667,0,0,4.16667,0,0)">
        <path d="M58.076,5.667L66.846,0.451L64.07,0.451L56.014,4.079L47.814,0.451L45.196,0.451L54.031,5.667L58.076,5.667ZM62.336,33.874C66.177,32.64 69.03,30.483 69.414,27.458C69.414,23.187 64.421,21.48 59.504,20.464C52.365,19.042 47.29,17.863 46.496,14.773C46.352,14.342 46.339,14.122 46.339,13.796C46.496,10.461 51.176,8.388 55.458,8.388C59.819,8.388 62.596,8.959 65.371,11.561L67.749,10.788C64.657,8.024 60.454,7.292 55.458,7.292C51.307,7.292 47.763,7.988 45.196,9.235L45.196,0.451L38.872,0.451L22.753,21.37L22.599,21.37L6.169,0.451L0,0.451L0,26.075L3.008,26.075L3.008,3.692L21.072,26.515L15.513,26.515L15.513,52.138L18.062,52.138L18.062,29.756L36.342,52.851L36.419,52.851L54.854,29.441L54.854,52.138L60.252,52.138L60.252,35.103L69.794,35.103L69.794,59L75.346,59L75.346,35.103L86.839,35.103L86.839,33.874L62.336,33.874ZM60.252,32.398L60.252,26.515L53.926,26.515L48.753,33.227C46.606,32.671 44.702,31.691 43.246,30.221L40.629,31.198C42.307,32.82 44.827,33.906 47.766,34.51L37.809,47.433L37.654,47.433L21.402,26.74L39.797,3.376L39.797,26.075L45.196,26.075L45.196,19.84C48.049,20.984 51.956,21.716 55.935,22.62C61.804,23.879 63.548,26.115 63.548,28.271C63.548,29.932 62.356,31.395 60.252,32.398Z" style="fill:rgb(35,31,32);fill-rule:nonzero;"/>
    </g>
</svg>
