<?xml version="1.0" encoding="utf-8"?>
<!-- Generator: Adobe Illustrator 26.0.0, SVG Export Plug-In . SVG Version: 6.00 Build 0)  -->
<svg version="1.1" id="Vrstva_1" xmlns="http://www.w3.org/2000/svg" xmlns:xlink="http://www.w3.org/1999/xlink" x="0px" y="0px"
	 viewBox="0 0 65.43 73.56" style="enable-background:new 0 0 65.43 73.56;" xml:space="preserve">
<style type="text/css">
	.st0{fill:#000000;}
</style>
<g>
	<path class="st0" d="M53.75,17.35c2.09,0,3.5-1.3,3.5-3.2c0-1.71-1.16-2.89-2.9-2.89c-1.1,0-1.98,0.43-2.54,1.15
		c0.1-1.96,0.86-2.94,2.04-2.94c0.72,0,1.26,0.4,1.49,1.13l1.78-0.48c-0.5-1.34-1.7-2.06-3.18-2.06c-2.47,0-3.9,1.78-3.9,4.84
		C50.04,15.73,51.37,17.35,53.75,17.35z M53.79,12.68c0.98,0,1.65,0.67,1.65,1.65c0,0.95-0.68,1.62-1.69,1.62
		c-1,0-1.69-0.67-1.69-1.62C52.06,13.35,52.76,12.68,53.79,12.68z"/>
	<path class="st0" d="M2.57,3.14v58.01c0,4.95,4.02,8.97,8.97,8.97h41.44c4.95,0,8.97-4.03,8.97-8.97V3.14H2.57z M45.34,68.3h-33.8
		c-3.94,0-7.15-3.21-7.15-7.15V4.96h40.95V68.3z M60.14,61.15c0,3.94-3.21,7.15-7.15,7.15h-5.82V4.96h12.97V61.15z"/>
	<path class="st0" d="M9.45,14h1.69c2.11,0,3.38-1.08,3.38-2.9c0-1.83-1.26-2.9-3.38-2.9h-3.5v9.02h1.82V14z M9.45,9.7h1.64
		c0.98,0,1.56,0.52,1.56,1.4c0,0.89-0.58,1.4-1.56,1.4H9.45V9.7z"/>
	<path class="st0" d="M17.49,13.26c0-1.57,1.21-1.89,2.37-1.34l0.34-1.67c-1.34-0.48-2.31,0.06-2.81,1.11v-1.17h-1.62v7.05h1.73
		V13.26z"/>
	<path class="st0" d="M22.92,13.23c-1.43,0.24-2.29,0.95-2.29,2.09c0,1.22,0.98,2.04,2.4,2.04c0.94,0,1.71-0.37,2.22-0.97
		c0.03,0.26,0.08,0.54,0.13,0.84h1.6c-0.15-0.91-0.24-1.61-0.24-2.22v-2.4c0-1.69-1.06-2.56-2.81-2.56c-1.57,0-2.69,0.8-3.2,2.13
		l1.57,0.35c0.26-0.76,0.8-1.12,1.55-1.12c0.73,0,1.25,0.41,1.25,1.25v0.22L22.92,13.23z M25.08,14.56c0,0.86-0.77,1.55-1.7,1.55
		c-0.63,0-1.03-0.33-1.03-0.82c0-0.48,0.32-0.77,0.98-0.88l1.75-0.31V14.56z"/>
	<path class="st0" d="M30.16,13.55c0-1.22,0.64-2,1.64-2c0.77,0,1.25,0.52,1.25,1.38v4.29h1.73v-4.5c0-1.65-0.91-2.68-2.42-2.68
		c-0.94,0-1.7,0.4-2.19,1.11V7.69h-1.73v9.53h1.73V13.55z"/>
	<path class="st0" d="M38.29,13.23C36.86,13.47,36,14.18,36,15.32c0,1.22,0.98,2.04,2.4,2.04c0.94,0,1.71-0.37,2.22-0.97
		c0.03,0.26,0.08,0.54,0.13,0.84h1.6c-0.15-0.91-0.24-1.61-0.24-2.22v-2.4c0-1.69-1.06-2.56-2.81-2.56c-1.57,0-2.69,0.8-3.2,2.13
		l1.57,0.35c0.26-0.76,0.8-1.12,1.55-1.12c0.73,0,1.25,0.41,1.25,1.25v0.22L38.29,13.23z M40.45,14.56c0,0.86-0.77,1.55-1.7,1.55
		c-0.63,0-1.03-0.33-1.03-0.82c0-0.48,0.32-0.77,0.98-0.88l1.75-0.31V14.56z"/>
</g>
</svg>
