<?xml version="1.0" encoding="UTF-8" standalone="no"?>
<!DOCTYPE svg PUBLIC "-//W3C//DTD SVG 1.1//EN" "http://www.w3.org/Graphics/SVG/1.1/DTD/svg11.dtd">
<svg width="100%" height="100%" viewBox="0 0 1052 490" version="1.1" xmlns="http://www.w3.org/2000/svg" xmlns:xlink="http://www.w3.org/1999/xlink" xml:space="preserve" xmlns:serif="http://www.serif.com/" style="fill-rule:evenodd;clip-rule:evenodd;stroke-linecap:round;stroke-linejoin:round;stroke-miterlimit:1.5;">
    <g transform="matrix(1,0,0,1,-174,-461)">
        <g id="zare-white" transform="matrix(0.578107,0,0,0.578107,295.333,283.935)">
            <g>
                <g transform="matrix(1.07339,0,0,1.07339,-66.4037,-86.4404)">
                    <path d="M932,987C932,866.602 834.398,769 714,769C593.602,769 496,866.602 496,987" style="fill:none;stroke:white;stroke-width:13.59px;"/>
                </g>
                <g transform="matrix(2.00917,0,0,2.00917,-734.55,-1010.06)">
                    <path d="M932,987C932,866.602 834.398,769 714,769C593.602,769 496,866.602 496,987" style="fill:none;stroke:white;stroke-width:8.3px;"/>
                </g>
                <g transform="matrix(3.00388,-8.33745e-17,8.33745e-17,3.00388,-1444.77,-1991.83)">
                    <path d="M932,987C932,866.602 834.398,769 714,769C593.602,769 496,866.602 496,987" style="fill:none;stroke:white;stroke-width:7.63px;"/>
                </g>
            </g>
            <g transform="matrix(1.37065,-0.000500882,4.95125e-05,0.135489,-259.514,1010.85)">
                <g opacity="0.13">
                    <g transform="matrix(1.07339,0,0,1.07339,-66.4037,-86.4404)">
                        <path d="M932,987C932,866.602 834.398,769 714,769C593.602,769 496,866.602 496,987" style="fill:none;stroke:white;stroke-width:13.59px;"/>
                    </g>
                    <g transform="matrix(2.00917,0,0,2.00917,-734.55,-1010.06)">
                        <path d="M932,987C932,866.602 834.398,769 714,769C593.602,769 496,866.602 496,987" style="fill:none;stroke:white;stroke-width:8.3px;"/>
                    </g>
                    <g transform="matrix(3.00388,-8.33745e-17,8.33745e-17,3.00388,-1444.77,-1991.83)">
                        <path d="M932,987C932,866.602 834.398,769 714,769C593.602,769 496,866.602 496,987" style="fill:none;stroke:white;stroke-width:7.63px;"/>
                    </g>
                </g>
            </g>
        </g>
    </g>
</svg>
